<svg viewBox="0 0 452 175" fill="none" xmlns="http://www.w3.org/2000/svg">
<path d="M55.4626 137.039L76.0327 95.8887L110.323 72.6757L139.343 78.4787L162.023 95.8887V73.2027L173.103 47.3517L219.533 14.1157L271.763 5.14673L302.363 20.9737L318.713 47.8797L320.293 81.6437L337.703 64.2337L363.553 60.5407L392.573 76.8957L406.293 93.2507L407.873 118.046L426.343 123.85L446.383 133.873L437.943 151.283L240.633 159.724L103.993 168.693L41.7427 165L9.56262 154.449L8.50269 138.094L32.2427 134.929L55.4626 137.039Z" fill="#FFFFFF"/>
<path d="M64.8927 117.958C63.9427 117.481 98.0827 34.4168 157.843 94.1808" stroke="#2B2B2B" stroke-width="10" stroke-miterlimit="10" stroke-linecap="round" stroke-linejoin="round"/>
<path d="M162.173 93.0998C132.753 34.2728 318.883 -63.6572 318.883 77.9688" stroke="#2B2B2B" stroke-width="10" stroke-miterlimit="10" stroke-linecap="round" stroke-linejoin="round"/>
<path d="M318.883 82.2918C329.703 60.6638 360.223 54.8428 380.493 69.3218C387.673 74.4558 402.543 84.6788 405.343 93.0998C407.953 100.91 405.703 125.889 407.513 116.877" stroke="#2B2B2B" stroke-width="10" stroke-miterlimit="10" stroke-linecap="round" stroke-linejoin="round"/>
<path d="M418.813 119.498C431.813 119.388 457.143 131.011 442.093 146.059C432.683 155.469 406.443 150.382 394.543 150.382C351.573 150.382 309.793 154.35 267.003 156.867C235.673 158.71 204.273 157.701 172.973 160.109C134.713 163.052 92.6927 174.108 54.0927 167.675C45.5627 166.254 -0.00733685 159.204 5.45266 142.816C9.18266 131.633 45.9828 136.332 55.1728 136.332" stroke="#2B2B2B" stroke-width="10" stroke-miterlimit="10" stroke-linecap="round" stroke-linejoin="round"/>
</svg>
