
<svg xmlns="http://www.w3.org/2000/svg" viewBox="0 0 128 128" ><path d=" M 21.287 28.694 L 13.311 32.165 L 23.551 68.165 L 34.801 92.606 L 39.385 98.272 L 48.781 94.874 L 53.993 89.38 L 70.824 100.771 L 78.846 86.122 L 81.682 67.736 L 96.322 64.052 L 114.421 61.19 L 104.124 50.932 L 74.002 40.168 L 21.287 28.694 Z " fill="rgb(255,255,255)"/><path d=" M 72.092 71.723 C 74.126 67.819 22.519 32.786 15.714 29.242 M 72.051 74.202 C 75.779 67.041 70.285 106.441 70.418 98.369 M 82.635 71.894 C 82.502 79.946 76.562 93.775 72.859 100.891 M 85.165 68.832 C 63.027 57.309 41.857 42.85 19.407 31.166 M 72.051 74.202 C 64.769 74.084 54.445 90.634 49.374 95.547 M 15.663 32.342 C 5.544 11.25 37.262 118.166 45.023 96.096 M 72.29 101.577 C 70.486 97.818 61.12 95.224 57.78 91.773 M 115.978 62.426 C 106.14 62.266 77.042 67.216 86.88 67.376 M 116.31 61.798 C 105.272 38.792 40.324 37.033 19.941 26.423" fill="none" vector-effect="non-scaling-stroke" stroke-width="2" stroke="rgb(0,0,0)" stroke-linejoin="round" stroke-linecap="round" stroke-miterlimit="10"/></svg>