<svg xmlns="http://www.w3.org/2000/svg" width="122" height="112" fill="none" stroke="#2b2b2b" stroke-width="6" stroke-miterlimit="10" stroke-linecap="round" stroke-linejoin="round" xmlns:v="https://vecta.io/nano"><path d="M34.452 56.309c2.714-4.786 74.551 25.532 82.89 30.26M31.877 58.038C36.856 49.259-.74 81.808 7.638 76.182m19.466-30.815C18.746 50.98 8.281 66.612 3.335 75.336m25.259-34.705c27.14 15.389 56.701 27.767 84.224 43.373M31.877 58.038c5.076 7.558-5.267 29.64-6.969 38.3m89.216-7.607c29.007-3.724-104.712 35.689-86.833 12.545M3 76.399c5.172-.664 14.258 7.398 20.148 8.556M14.367 3.953c6.856 10.211 21.451 44.1 14.594 33.889M14.806 3.177C46.438-.883 92.441 66.05 117.428 80.219"/></svg>