<svg xmlns="http://www.w3.org/2000/svg" height="100%" width="100%" viewBox="0 0 122 111" stroke-miterlimit="10"  fill-rule="nonzero" stroke-linecap="round" stroke-linejoin="round"><path d="M8.456 72.797L5.949 83.393l43.753 16.749 32.929 7.065 9.115-.342 3.646-11.964-1.595-9.343 24.041-8.318-8.659-19.028-16.294-16.635 7.292-17.433 10.711-20.281-18.003 2.621-33.384 22.104L8.456 72.797z" fill="#ffffff" /><path d="M88.935 55.178C86.549 50.212 12.73 75.635 4.073 79.794m87.315-22.715c-4.378-9.108 30.976 25.957 22.988 19.768m-17.36-32.104c7.968 6.174 17.367 22.501 21.719 31.55M95.846 39.911C67.691 53.447 37.322 63.81 8.772 77.537m82.616-20.458c-5.582 7.207 3.255 29.968 4.372 38.735M7.141 82.171c-28.724-5.685 102.195 42.748 85.905 18.415m25.949-23.208c-5.12-1.013-14.746 6.425-20.709 7.183m14.259-80.329c-7.541 9.737-24.413 42.605-16.872 32.868m16.491-33.672C80.833-2.772 30.343 60.982 4.42 73.444" fill="none" stroke="currentColor" stroke-width="6"/></svg>