<svg xmlns="http://www.w3.org/2000/svg" width="122" height="111" fill="none" stroke="#2b2b2b" stroke-width="6" stroke-miterlimit="10" stroke-linecap="round" stroke-linejoin="round"><path d="M88.827 55.506c-2.383-4.959-76.104 20.43-84.749 24.583m87.199-22.685c-4.373-9.096 30.936 25.922 22.958 19.742M96.898 45.085c7.958 6.166 17.344 22.471 21.69 31.508M95.73 40.26C67.612 53.777 37.284 64.127 8.771 77.836m82.506-20.432c-5.574 7.198 3.251 29.928 4.366 38.684M7.142 82.463c-28.686-5.677 102.06 42.691 85.79 18.391m25.916-23.178c-5.113-1.012-14.726 6.417-20.681 7.174m14.239-80.222c-7.53 9.724-24.38 42.548-16.85 32.824m16.47-33.628C80.736-2.367 30.314 61.302 4.425 73.747"/></svg>